<?xml version="1.0" encoding="utf-8"?>
<svg width="81" height="78" fill="none" xmlns="http://www.w3.org/2000/svg">
  <path d="M61.036 23.583c-.61.183-.934.833-.752 1.422.61 1.95.914 4.001.914 6.073a20.576 20.576 0 0 1-9.1 17.103c-3.25 2.194-5.321 5.77-5.646 9.69h-1.97V46.352l5.2-5.037c.446-.447.466-1.158.02-1.605-.447-.447-1.158-.467-1.605-.02l-.833.812-1.666-.63a1.067 1.067 0 0 0-.792 0l-1.91.712-1.909-.711a1.067 1.067 0 0 0-.792 0l-1.91.71-1.908-.71a1.067 1.067 0 0 0-.793 0l-1.665.63-.833-.813a1.128 1.128 0 0 0-1.605.02 1.128 1.128 0 0 0 .02 1.605l5.2 5.037V57.87h-1.97a13.231 13.231 0 0 0-5.748-9.75 20.62 20.62 0 0 1-8.999-16.757c-.101-5.566 2.052-10.847 6.033-14.828 3.981-4.002 9.263-6.155 14.849-6.074 7.19.102 13.69 3.84 17.387 10.014a1.133 1.133 0 0 0 1.564.386c.549-.325.711-1.015.386-1.564-1.97-3.29-4.773-6.033-8.064-7.983a22.77 22.77 0 0 0-11.253-3.128c-6.195-.081-12.045 2.316-16.474 6.744-4.428 4.428-6.825 10.278-6.743 16.473a22.959 22.959 0 0 0 9.994 18.607 10.966 10.966 0 0 1 4.732 7.86h-2.864a2.423 2.423 0 0 0-2.417 2.418v2.458a2.423 2.423 0 0 0 2.417 2.417h.528v2.579c0 1.32 1.077 2.397 2.397 2.417.04.996.244 1.97.63 2.885.244.589.914.853 1.503.61.59-.245.853-.915.61-1.504a5.68 5.68 0 0 1-.447-2.01H46.41c-.142 3.107-2.702 5.585-5.83 5.585a5.617 5.617 0 0 1-2.376-.508 1.13 1.13 0 0 0-1.503.57c-.264.568 0 1.238.568 1.502a8.014 8.014 0 0 0 3.311.711c4.388 0 7.963-3.494 8.105-7.86a2.406 2.406 0 0 0 2.397-2.418v-2.58h.528a2.423 2.423 0 0 0 2.417-2.417v-2.458a2.423 2.423 0 0 0-2.417-2.417h-2.864c.325-3.169 2.01-6.033 4.631-7.8a22.904 22.904 0 0 0 9.08-25.736c-.163-.569-.813-.914-1.422-.731ZM35.706 42.25l.264-.101 1.91.71c.264.102.548.102.792 0l1.91-.71 1.909.71c.264.102.548.102.792 0l1.91-.71.263.101-2.904 2.803a1.138 1.138 0 0 0-.346.813V57.87h-3.25V45.865c0-.305-.122-.61-.345-.813l-2.905-2.803Zm13.081 25.492c0 .061-.06.122-.121.122h-16.19c-.08 0-.121-.06-.121-.122v-2.458c0-.06.06-.121.122-.121h16.189c.08 0 .122.06.122.121v2.458Zm2.824-7.576c.06 0 .122.06.122.122v2.458c0 .08-.061.121-.122.121H29.55a.131.131 0 0 1-.121-.121v-2.458c0-.061.06-.122.122-.122H51.61Z" style="fill: rgb(218, 165, 32);"/>
  <path d="M40.581 4.753c.63 0 1.138-.508 1.138-1.137V1.138C41.719.508 41.21 0 40.58 0c-.63 0-1.137.508-1.137 1.137v2.479c0 .63.508 1.137 1.137 1.137ZM25.103 8.064c.203.366.59.569.995.569.204 0 .386-.04.57-.163a1.159 1.159 0 0 0 .426-1.564l-1.24-2.133a1.159 1.159 0 0 0-1.563-.426 1.159 1.159 0 0 0-.427 1.564l1.24 2.153ZM16.064 17.103l-2.133-1.239c-.548-.325-1.239-.122-1.564.427-.325.548-.122 1.239.427 1.564l2.133 1.239c.182.101.365.162.568.162.386 0 .772-.203.996-.569a1.178 1.178 0 0 0-.427-1.584ZM68.369 47.308l-2.133-1.24c-.549-.324-1.24-.121-1.564.427-.325.549-.122 1.24.426 1.564l2.133 1.24c.183.101.386.162.569.162.386 0 .772-.203.995-.569.305-.569.122-1.28-.426-1.584ZM12.753 32.581c0-.63-.508-1.137-1.137-1.137H9.137c-.63 0-1.137.508-1.137 1.137 0 .63.508 1.138 1.137 1.138h2.479c.63 0 1.137-.508 1.137-1.138ZM72.005 31.444h-2.458c-.63 0-1.138.508-1.138 1.137 0 .63.508 1.138 1.138 1.138h2.478c.63 0 1.137-.508 1.137-1.138a1.166 1.166 0 0 0-1.157-1.137ZM14.927 46.069l-2.133 1.239a1.159 1.159 0 0 0-.427 1.564c.203.365.59.569.995.569.204 0 .386-.041.57-.163l2.132-1.239a1.159 1.159 0 0 0 .427-1.564c-.325-.528-1.036-.711-1.564-.406ZM65.667 19.236c.203 0 .386-.04.569-.163l2.133-1.239a1.159 1.159 0 0 0 .426-1.564 1.159 1.159 0 0 0-1.564-.426l-2.133 1.239a1.159 1.159 0 0 0-.426 1.564c.203.386.589.589.995.589ZM54.495 8.47c.183.102.386.163.57.163.385 0 .77-.203.994-.569l1.24-2.133c.324-.548.121-1.239-.427-1.564-.549-.325-1.24-.122-1.564.427l-1.24 2.133a1.13 1.13 0 0 0 .427 1.543Z" fill="#CBCBCB"/>
</svg>