<?xml version="1.0" encoding="utf-8"?>
<svg width="81" height="78" fill="none" xmlns="http://www.w3.org/2000/svg">
  <g clip-path="url(#a)">
    <path d="M17.677 66.044c-.232-.192-.486-.383-.718-.596-1.18-1.002-2.7.83-1.54 1.832l.76.64c1.181.959 2.721-.874 1.498-1.876ZM3.185 39.49c.654 0 1.181-.533 1.181-1.194 0-.298 0-.617.022-.937.042-1.556-2.342-1.62-2.363-.064 0 .32-.021.66-.021 1.002 0 .639.527 1.193 1.181 1.193ZM42.841 2.515a51.17 51.17 0 0 1 1.878.17c1.476.17 1.772-2.216.274-2.387-.654-.085-1.329-.128-2.004-.17-1.519-.107-1.666 2.301-.148 2.387ZM17.36 10.442c.253 0 .506-.085.739-.255a40.18 40.18 0 0 1 1.518-1.13c1.266-.895-.105-2.856-1.35-1.96-.548.383-1.097.788-1.624 1.214-.844.618-.38 2.131.717 2.131ZM23.098 6.713c.19 0 .38-.043.548-.128a24.834 24.834 0 0 1 1.688-.831c1.392-.64.422-2.834-.992-2.195-.611.277-1.223.575-1.814.895-.97.511-.696 2.259.57 2.259ZM49.38 3.538c.612.149 1.224.32 1.815.511 1.413.426 2.151-1.854.696-2.302a28.943 28.943 0 0 0-1.941-.532c-1.477-.384-2.046 1.96-.57 2.323ZM29.426 4.113c.738-.107 1.434-.405 2.173-.554 1.497-.384.906-2.707-.57-2.323-.654.17-1.308.34-1.94.554-1.308.362-.971 2.323.337 2.323ZM75.811 30.688c.126.618.253 1.258.359 1.876.232 1.513 2.594 1.15 2.341-.384a33.525 33.525 0 0 0-.38-2.003c-.316-1.513-2.657-1.002-2.32.511ZM71.634 20.118c.844 1.406 2.806.042 2.046-1.236-.337-.576-.717-1.151-1.075-1.727-.865-1.278-2.827.064-1.962 1.343.338.533.675 1.066.991 1.62ZM73.786 24.359c.253.575.485 1.172.696 1.769.59 1.62 2.721.511 2.236-.831a50.487 50.487 0 0 0-.738-1.897c-.612-1.428-2.785-.469-2.194.959ZM11.58 14.854c.57.426 1.14.405 1.688-.107.422-.469.844-.937 1.287-1.385 1.075-1.108-.612-2.792-1.688-1.684-.464.49-.928.98-1.37 1.492-.444.47-.402 1.236.084 1.684ZM55.624 5.733c.57.255 1.14.532 1.709.83 1.308.683 2.489-1.406 1.097-2.13-.59-.32-1.203-.618-1.814-.895-1.392-.64-2.384 1.555-.992 2.195ZM67.732 14.726c1.034 1.172 2.784-.448 1.772-1.598a45.484 45.484 0 0 0-1.371-1.492c-1.076-1.108-2.763.575-1.688 1.684.443.468.865.937 1.287 1.406ZM61.383 9.036c.506.362 1.033.746 1.519 1.13 1.18.937 2.7-.938 1.455-1.897-.527-.405-1.076-.832-1.624-1.215-1.245-.874-2.616 1.087-1.35 1.982ZM36.091 2.706c.675-.064 1.35-.149 2.025-.17 1.54-.107 1.371-2.494-.147-2.387-.675.043-1.35.107-2.004.17-1.456.171-1.308 2.387.126 2.387ZM3.46 33.587c.59.106 1.265-.405 1.37-1.002.106-.618.211-1.257.36-1.875.337-1.513-2.005-2.025-2.321-.512-.148.66-.274 1.343-.38 2.004-.105.681.338 1.278.97 1.385ZM4.978 26.874c.612.213 1.118-.022 1.519-.725.21-.597.443-1.193.696-1.769.612-1.428-1.582-2.365-2.194-.938-.274.619-.506 1.258-.738 1.897-.211.597.105 1.3.717 1.535ZM7.72 20.544c.591.32 1.14.192 1.625-.405.316-.554.653-1.087 1.012-1.62.865-1.278-1.118-2.62-1.962-1.342a23.63 23.63 0 0 0-1.075 1.726c-.338.554-.17 1.3.4 1.641ZM76.612 37.359c0 .32.022.618.022.938.042 1.577 2.32 1.577 2.383 0 0-.32 0-.661-.02-1.002-.043-1.556-2.427-1.492-2.385.064ZM63.893 65.597c-.232.191-.485.404-.717.596-1.224.98.232 2.75 1.476 1.876.254-.213.507-.405.76-.618 1.181-1.002-.338-2.856-1.519-1.854ZM47.63 73.418c-.59.128-1.203.213-1.793.32-1.498.213-1.118 2.6.337 2.386.633-.085 1.287-.213 1.899-.32 1.54-.34 1.075-2.684-.443-2.386ZM53.747 71.628c-.57.213-1.14.426-1.709.618-1.497.49-.654 2.749.739 2.28a45.621 45.621 0 0 0 1.814-.66c1.434-.555.59-2.792-.844-2.238ZM59.442 68.793c-.506.32-1.054.618-1.582.917-1.392.767-.169 2.813 1.118 2.11.57-.299 1.14-.64 1.688-.98 1.329-.79.084-2.857-1.224-2.047ZM28.793 72.182a27.81 27.81 0 0 1-1.709-.64c-1.434-.575-2.299 1.663-.864 2.238.59.234 1.202.469 1.814.66 1.392.512 2.236-1.747.759-2.258ZM41.323 74.1c-.612.021-1.224.021-1.814 0-1.54-.043-1.603 2.365-.064 2.408.633.021 1.287.021 1.941 0 1.519-.043 1.476-2.45-.063-2.408ZM22.971 69.624c-.527-.298-1.055-.596-1.582-.916-1.308-.81-2.552 1.236-1.244 2.046.548.34 1.117.66 1.666.98 1.308.704 2.552-1.342 1.16-2.11ZM34.974 73.695a26.36 26.36 0 0 1-1.793-.32c-1.498-.298-1.983 2.046-.465 2.344.633.128 1.266.235 1.899.342 1.476.234 1.835-2.132.358-2.366Z" fill="#CBCBCB"/>
    <path d="m69.377 56.752 6.898-5.946 2.637 3.133a1.167 1.167 0 0 0 1.666.128c.506-.426.57-1.193.127-1.684l-8.058-9.355-7.088-14.62a4.82 4.82 0 0 0-2.003-2.11l-10.168-6.691c-1.307-.853-3.206-.725-4.514.02l-5.569 3.155c-1.033.575-1.792 1.534-2.172 2.664l-.717 2.195-.718-2.195a4.828 4.828 0 0 0-2.172-2.664l-5.548-3.175c-1.308-.746-3.206-.874-4.514-.022l-3.417 2.26c-1.287.852.021 2.855 1.308 2.002l3.354-2.216a2.304 2.304 0 0 1 2.109.064l5.569 3.154c.506.277.886.746 1.075 1.321l1.751 5.37c.148.448-.527 1.322-.907.683l-1.793-3.005a2.892 2.892 0 0 0-1.793-1.321l-3.818-.938c-.801-.192-2.257.107-2.784.874-.042.106-5.273 7.8-5.316 7.906a5.477 5.477 0 0 0 0 5.456l2.89 5.008a5.284 5.284 0 0 0 3.059 2.43c3.48.98 6.286 1.768 8.69 4.752.507.618 1.055 1.215 1.561 1.812.338.447-.21 1.236-.738.873l-3.544-2.62a2.292 2.292 0 0 0-.232-.129c-.19-.085-1.223-.575-1.392-.596l-10.652-2.132a1.183 1.183 0 0 0-.549.022l-5.8 1.662a5.58 5.58 0 0 0-3.186 2.408l-6.602-5.69 3.797-4.518c.063-.085.127-.15.169-.256l7.172-14.747c.295-.49.653-.853 1.117-1.108l1.625-1.066c1.286-.853-.021-2.856-1.308-2.003l-1.561 1.044a4.766 4.766 0 0 0-2.004 2.088L8.205 43.05l-7.91 9.313c-.991 1.172.802 2.75 1.814 1.556l2.637-3.133 6.898 5.946L.169 76.061a1.21 1.21 0 0 0 .4 1.64 1.17 1.17 0 0 0 1.625-.404l11.58-19.5c.633-1.236 1.519-2.813 2.932-3.218L22.233 53l10.251 2.046.907.405 3.46 2.558c1.055.788 2.552.703 3.544-.107.99.81 2.467.917 3.543.107l3.565-2.643c.211-.15.443-.256.675-.298L58.556 53l5.527 1.578c1.16.32 2.11 1.598 2.72 2.6l11.94 20.118c.232.383.612.575 1.013.575.885.021 1.497-1.044 1.012-1.811l-11.39-19.309Zm-4.62-4.475c-.273-.021-6.264-1.94-6.37-1.684l-10.652 2.131c-.59.107-1.139.363-1.624.725l-3.544 2.6c-.548.362-1.097-.426-.738-.874.527-.596 1.076-1.193 1.56-1.811 2.384-2.962 5.211-3.772 8.691-4.753a5.284 5.284 0 0 0 3.06-2.43l2.889-5.007a5.477 5.477 0 0 0 0-5.456 1.197 1.197 0 0 0-1.624-.448 1.197 1.197 0 0 0-.422 1.641 3.092 3.092 0 0 1 0 3.027l-2.89 5.008c-.38.66-.97 1.13-1.688 1.342-3.965 1.087-7.13 2.174-9.83 5.499l-1.16 1.321-1.16-1.321c-2.7-3.346-5.864-4.433-9.83-5.499a2.871 2.871 0 0 1-1.687-1.342l-2.89-5.008c-.527-.917-.548-2.068-.02-2.984l5.146-7.65a.421.421 0 0 1 .359-.043l3.818.937a.442.442 0 0 1 .316.235l1.793 3.005c.844 1.406 2.911 1.704 4.156.745 1.244.96 3.332.661 4.155-.745l1.793-3.005c.063-.128.19-.192.317-.235l3.817-.937a.58.58 0 0 1 .38.064l1.877 2.514c.992 1.236 2.806-.149 1.899-1.449L52.67 27.77c-.548-.725-1.94-1.023-2.742-.831l-3.818.937c-.738.17-1.392.661-1.793 1.322l-1.793 3.005c-.337.575-1.076-.192-.907-.682l1.75-5.37c.19-.555.57-1.024 1.076-1.322l5.57-3.154a2.304 2.304 0 0 1 2.109-.064l10.167 6.713c.464.256.844.64 1.118 1.108L70.58 44.18c.042.085.105.191.168.255l3.924 4.497-6.666 5.84c-.78-1.151-1.898-2.11-3.248-2.494Z" style="fill: rgb(218, 165, 32);"/>
  </g>
  <defs>
    <clipPath id="a">
      <path fill="#fff" d="M0 0h81v78H0z"/>
    </clipPath>
  </defs>
</svg>