<?xml version="1.0" encoding="utf-8"?>
<svg width="81" height="78" fill="none" xmlns="http://www.w3.org/2000/svg">
  <path d="M80.284 29.919a1.168 1.168 0 0 0-1.658-.105L63.35 43.174a1.137 1.137 0 0 0-.315 1.3 8.905 8.905 0 0 1-.944 8.116l-2.917-2.58c-1.133-1.006-2.706.756-1.573 1.762l6.798 6.062c1.091.964 1.175 2.684.19 3.775a2.582 2.582 0 0 1-3.631.188c-1.805-1.636-3.61-3.292-5.435-4.928-1.133-1.028-2.707.713-1.595 1.74l5.037 4.572a2.687 2.687 0 0 1 0 3.566 2.582 2.582 0 0 1-3.63.189c-1.826-1.594-3.589-3.272-5.351-4.929-1.113-1.049-2.728.692-1.616 1.72l3.966 3.67c1.049.986 1.217 2.706.23 3.796a2.582 2.582 0 0 1-3.63.189c-1.531-1.405-3.105-2.748-4.595-4.174-1.091-1.048-2.728.65-1.637 1.7l2.204 2.117c1.049 1.028 1.259 2.664.23 3.796a2.582 2.582 0 0 1-3.63.19c-.063-.064-.524-.504-1.007-.966 1.07-1.803.818-4.131-.776-5.83a4.874 4.874 0 0 0-3.21-1.552c.398-1.615.02-3.419-1.197-4.698a4.945 4.945 0 0 0-3.462-1.573c.377-1.594-.021-3.356-1.217-4.614a5.005 5.005 0 0 0-4.68-1.468c-.042-1.174-.482-2.37-1.343-3.272-1.888-2.013-5.099-2.097-7.071-.167a8.901 8.901 0 0 1-.105-6.208c.168-.44.042-.944-.315-1.259L1.973 29.625a1.166 1.166 0 0 0-1.658.084A1.165 1.165 0 0 0 .4 31.366l14.584 13.255a11.257 11.257 0 0 0 .734 7.927l-1.28 1.175c-1.972 1.803-1.91 5.138-.125 7.026a4.868 4.868 0 0 0 3.42 1.552c-.357 1.573.063 3.313 1.238 4.55 1.175 1.238 3 1.804 4.658 1.448.021 1.216.462 2.433 1.364 3.376 1.175 1.238 3 1.804 4.68 1.448a4.978 4.978 0 0 0 1.363 3.334c1.889 1.993 5.12 2.056 7.072.126l.818-.776c.756.734.945.902.986.965 1.973 1.761 5.162 1.615 6.967-.357a5.062 5.062 0 0 0 1.259-2.684c1.972 1.174 4.595.839 6.19-.923a4.953 4.953 0 0 0 1.28-3.062 4.985 4.985 0 0 0 5.141-1.405 4.968 4.968 0 0 0 1.28-3.566 4.972 4.972 0 0 0 4.323-1.573c1.825-2.013 1.657-5.306-.378-7.11l-2.12-1.887c2.015-2.79 2.624-6.438 1.637-9.752L80.18 31.597c.483-.44.546-1.196.105-1.678ZM16.01 59.176c-.986-1.028-.965-2.685.021-3.691 1.028-.944 2.057-1.909 3.106-2.853 1.049-.965 2.728-1.048 3.756.042.881.944.944 2.391.21 3.398-1.113 1.048-2.225 2.097-3.358 3.125-1.049.964-2.686 1.07-3.735-.021Zm6.526 6.92a2.48 2.48 0 0 1-1.846-.817 2.652 2.652 0 0 1 .042-3.691c1.49-1.406 3.042-2.79 4.49-4.237 1.028-1.027 2.728-.986 3.714.084.965 1.049.944 2.706-.042 3.712l-4.49 4.195c-.483.44-1.175.755-1.868.755Zm6.022 4.824a2.48 2.48 0 0 1-1.846-.817c-.986-1.028-.965-2.685.02-3.692l3.106-2.852c1.05-.965 2.728-1.049 3.756.042 1.092 1.195.86 2.957-.314 3.943-.777.545-1.448 1.28-2.12 1.908-.755.713-1.448 1.49-2.602 1.468Zm7.89 4.027a2.58 2.58 0 0 1-3.693-.063c-.944-.985-.965-2.537-.084-3.565l2.078-1.909c1.028-.65 2.455-.419 3.273.44 1.028 1.091 1.07 2.518.105 3.503l-.021.021-1.658 1.573c.021-.02 0-.02 0 0Z" style="fill: rgb(218, 165, 32);"/>
  <path d="m.378 2.046 29.189 26.51c.377.335.923.398 1.363.168 2.183-1.217 4.764-1.384 7.072-.567-2.623 2.265-5.875 4.447-7.932 7.278-.881 1.195.986 2.663 1.91 1.384 1.93-2.643 5.036-4.593 7.449-6.774 2.623-2.37 6.589-2.873 9.715-1.238.44.231.965.168 1.343-.167L80.18 2.298c.483-.44.525-1.174.105-1.657a1.188 1.188 0 0 0-1.658-.105L49.48 26.396c-2.938-1.259-6.337-1.175-9.19.23-3.002-1.636-6.632-1.761-9.758-.356L1.973.306A1.167 1.167 0 0 0 .315.39c-.44.482-.42 1.216.063 1.656Z" fill="#CBCBCB"/>
  <path d="M30.343 41.58c.063-1.531-2.287-1.636-2.35-.105l-.273 5.893c-.105 2.706 1.994 5.034 4.68 5.201 2.727.168 5.12-2.055 5.224-4.781l.44-6.439c.463-.42 3.757-3.628 3.946-3.46l10.366 9.228c1.133 1.006 2.728-.734 1.574-1.762L42.764 35.33a1.185 1.185 0 0 0-1.574 0l-5.057 4.572a1.15 1.15 0 0 0-.377.797l-.462 6.942c-.105 1.405-1.259 2.642-2.728 2.559-1.406-.084-2.518-1.322-2.455-2.748l.231-5.872Z" style="fill: rgb(218, 165, 32);"/>
</svg>