<?xml version="1.0" encoding="utf-8"?>
<svg width="81" height="78" fill="none" xmlns="http://www.w3.org/2000/svg">
  <path d="m67.456 24.459-3.655-4.448a3.915 3.915 0 0 1-.884-2.132l-.548-5.728a6.282 6.282 0 0 0-5.636-5.635l-5.727-.549a3.915 3.915 0 0 1-2.133-.883l-4.448-3.656a6.27 6.27 0 0 0-7.966 0l-4.448 3.656c-.61.502-1.34.807-2.132.883l-5.728.549a6.282 6.282 0 0 0-5.635 5.635l-.549 5.728a3.915 3.915 0 0 1-.883 2.132l-3.656 4.448a6.27 6.27 0 0 0 0 7.966l3.656 4.448c.502.61.807 1.34.883 2.133l.549 5.727a6.282 6.282 0 0 0 5.635 5.636l3.504.335-8.332 19.893a1.5 1.5 0 0 0 .259 1.584c.396.442.975.61 1.538.457l7.22-2.04c.03-.016.061 0 .076.03l3.61 6.58c.275.487.777.792 1.326.792h.076a1.514 1.514 0 0 0 1.325-.93l8.804-21.02a5.36 5.36 0 0 0 .853-.594l4.448-3.655a3.887 3.887 0 0 1 1.95-.853l7.95 19.01-5.635-1.585a2.361 2.361 0 0 0-2.727 1.143l-2.818 5.118-3.731-8.926a1.153 1.153 0 1 0-2.133.883l4.372 10.465c.228.533.73.898 1.325.929h.076c.548 0 1.051-.29 1.325-.792l3.61-6.58c.016-.031.046-.046.077-.031l7.22 2.041a1.498 1.498 0 0 0 1.538-.457 1.479 1.479 0 0 0 .259-1.584l-8.317-19.893 3.504-.335a6.282 6.282 0 0 0 5.635-5.636l.549-5.728c.076-.792.38-1.523.883-2.132l3.656-4.448c1.92-2.285 1.92-5.636.03-7.951Zm-34.18 50.175L30.457 69.5a2.361 2.361 0 0 0-2.727-1.143l-5.636 1.584 7.951-19.01a4.023 4.023 0 0 1 1.95.853l4.448 3.656a6.32 6.32 0 0 0 3.99 1.432h.275l-7.434 17.76Zm32.383-43.67-3.656 4.447a6.256 6.256 0 0 0-1.401 3.381l-.548 5.728a3.96 3.96 0 0 1-3.55 3.549l-5.026.487h-.061l-.64.061a6.255 6.255 0 0 0-3.381 1.402l-4.448 3.655a3.95 3.95 0 0 1-5.027 0l-4.447-3.655a6.255 6.255 0 0 0-3.382-1.402l-.64-.06h-.046l-5.041-.488a3.96 3.96 0 0 1-3.55-3.55l-.548-5.727a6.255 6.255 0 0 0-1.401-3.381l-3.656-4.448a3.95 3.95 0 0 1 0-5.027l3.656-4.447a6.255 6.255 0 0 0 1.401-3.382l.549-5.727a3.96 3.96 0 0 1 3.549-3.55l5.727-.548a6.255 6.255 0 0 0 3.382-1.4l4.447-3.657a3.971 3.971 0 0 1 2.514-.898c.898 0 1.782.304 2.513.898l4.448 3.656a6.255 6.255 0 0 0 3.381 1.401l5.727.549a3.96 3.96 0 0 1 3.55 3.549l.548 5.727a6.256 6.256 0 0 0 1.401 3.382l3.656 4.447a3.95 3.95 0 0 1 0 5.027Z" fill="#CBCBCB"/>
  <path d="M40.435 10.384c-.777 0-1.554.046-2.316.153a1.154 1.154 0 0 0-1.005 1.295c.076.64.655 1.081 1.295 1.005.67-.091 1.34-.122 2.01-.122 8.683 0 15.75 7.068 15.75 15.75s-7.067 15.75-15.75 15.75c-8.682 0-15.75-7.068-15.75-15.75 0-6.2 3.656-11.835 9.307-14.38.579-.258.838-.944.579-1.522a1.155 1.155 0 0 0-1.523-.58 18.092 18.092 0 0 0-10.678 16.482c0 9.962 8.104 18.065 18.065 18.065 9.962 0 18.066-8.103 18.066-18.065.015-9.977-8.089-18.08-18.05-18.08Z" style="fill: rgb(218, 165, 32);"/>
  <path d="M28.95 27.11c-1.371 1.386-1.371 3.625 0 4.996l5.057 5.057a3.502 3.502 0 0 0 2.498 1.036c.944 0 1.828-.366 2.498-1.036L50.03 26.135a3.52 3.52 0 0 0 0-4.997 3.52 3.52 0 0 0-4.996 0l-8.53 8.53-2.56-2.558a3.52 3.52 0 0 0-4.995 0Zm7.54 5.33c.304 0 .593-.121.822-.334l9.337-9.338a1.241 1.241 0 0 1 1.737 0 1.241 1.241 0 0 1 0 1.737L37.358 35.533a1.221 1.221 0 0 1-.868.365c-.32 0-.64-.121-.869-.365l-5.057-5.057a1.241 1.241 0 0 1 0-1.737c.244-.243.549-.365.868-.365.32 0 .625.122.869.35l3.366 3.366c.228.229.518.35.822.35Z" style="fill: rgb(218, 165, 32);"/>
</svg>